<svg xmlns="http://www.w3.org/2000/svg" viewBox="0 0 490 490" fill="currentColor">
    <path d="M205.15 244.232h-43.754a11.575 11.575 0 1 1 0-23.15h43.754a11.575 11.575 0 0 1 0 23.15z"/>
    <path d="M183.287 266.123a11.575 11.575 0 0 1-11.575-11.575v-43.792a11.575 11.575 0 0 1 23.15 0v43.792a11.575 11.575 0 0 1-11.575 11.575zm93.667-21.345a11.585 11.585 0 0 0 0-23.15 11.585 11.585 0 0 0 0 23.15zm26.355-26.345a11.585 11.585 0 0 0 0-23.151 11.585 11.585 0 0 0 0 23.15zm-1.111 51.589a11.585 11.585 0 0 0 0-23.151 11.585 11.585 0 0 0 0 23.15zm26.345-26.309a11.585 11.585 0 0 0 0-23.15 11.585 11.585 0 0 0 0 23.15z"/>
    <path d="M350.407 395.118a45.375 45.375 0 0 1-44.005-33.92l-12.964-37.967a189.354 189.354 0 0 1-96.64-.63l-13.483 39.421a43.755 43.755 0 0 1-15.9 23.605 45.422 45.422 0 0 1-73.156-35.523v-98.983c0-2.87.352-8.038.5-10l-.482-8.752a97.177 97.177 0 0 1 96.918-97.547 95.853 95.853 0 0 1 34.522 6.352 35.383 35.383 0 0 0 12.715 2.176h13.075a34.735 34.735 0 0 0 12.53-2.102 95.566 95.566 0 0 1 36.494-6.408 98.844 98.844 0 0 1 95.205 99.798v115.494a45.2 45.2 0 0 1-45.33 44.986zm-49.876-98.242a11.603 11.603 0 0 1 10.955 7.834l17.048 49.858a22.577 22.577 0 0 0 21.845 17.4 22.03 22.03 0 0 0 22.178-21.836V234.638a75.592 75.592 0 0 0-72.433-76.647 72.045 72.045 0 0 0-27.781 4.852 57.867 57.867 0 0 1-20.882 3.658h-13.03a58.442 58.442 0 0 1-21.01-3.704 72.767 72.767 0 0 0-26.226-4.815 73.878 73.878 0 0 0-73.841 73.758l.5 8.843a17.594 17.594 0 0 1 0 1.852c-.102 1.306-.463 6.112-.463 8.686v99.011a22.28 22.28 0 0 0 35.846 17.224 21.762 21.762 0 0 0 7.918-11.946l17.307-50.7a11.585 11.585 0 0 1 14.724-7.195c.574.185 56.997 19.215 103.002.232a11.548 11.548 0 0 1 4.343-.87zm-32.318-144.84z"/>
    <path d="M252.322 140.563a11.39 11.39 0 0 1-.972-10.964 17.511 17.511 0 0 1 8.093-9.63 46.024 46.024 0 0 1 33.68-1.51 75.786 75.786 0 0 0 42.55 1.315 34.106 34.106 0 0 0 23.698-32.56 11.835 11.835 0 0 0-11.613-11.575 11.686 11.686 0 0 0-11.575 11.576c.611 11.52-14.427 12.76-23.15 11.723-14.576-1.722-28.235-7.334-43.181-5.713a47.987 47.987 0 0 0-36.273 20.215 36.874 36.874 0 0 0-1.268 38.8c7.741 12.705 27.78 1.084 19.983-11.677z"/>
    <circle style="fill:none;stroke:currentColor;stroke-width:21.2162;stroke-miterlimit:4;stroke-dasharray:none;stroke-opacity:1"
            cx="245" cy="245" r="234.392"/>
</svg>
