<svg xmlns="http://www.w3.org/2000/svg" viewBox="0 0 490 490" fill="currentColor">
    <path d="M93.938 284.956h25.997a7.428 7.428 0 0 0 7.427-7.427v-25.996a7.428 7.428 0 0 0-7.427-7.428H93.938a7.428 7.428 0 0 0-7.427 7.428v25.996a7.428 7.428 0 0 0 7.427 7.427zm7.428-25.996h11.141v11.141h-11.141Zm42.801 25.996h25.996a7.428 7.428 0 0 0 7.428-7.427v-25.996a7.428 7.428 0 0 0-7.428-7.428h-25.996a7.428 7.428 0 0 0-7.427 7.428v25.996a7.428 7.428 0 0 0 7.427 7.427zm7.428-25.996h11.14v11.141h-11.14zm42.8 25.996h25.997a7.428 7.428 0 0 0 7.428-7.427v-25.996a7.428 7.428 0 0 0-7.428-7.428h-25.996a7.428 7.428 0 0 0-7.428 7.428v25.996a7.428 7.428 0 0 0 7.428 7.427zm7.428-25.996h11.142v11.141h-11.142zm-57.656 72.79h76.225a7.428 7.428 0 0 0 7.428-7.428v-25.996a7.428 7.428 0 0 0-7.428-7.428h-76.225a7.428 7.428 0 0 0-7.427 7.428v25.996a7.428 7.428 0 0 0 7.427 7.428zm7.428-25.996h61.37v11.14h-61.37zm92.565-20.798h25.997a7.428 7.428 0 0 0 7.427-7.427v-25.996a7.428 7.428 0 0 0-7.427-7.428H244.16a7.428 7.428 0 0 0-7.427 7.428v25.996a7.428 7.428 0 0 0 7.427 7.427zm7.428-25.996h11.141v11.141h-11.141zm74.368 25.996h25.996a7.428 7.428 0 0 0 7.428-7.427v-25.996a7.428 7.428 0 0 0-7.428-7.428h-25.996a7.428 7.428 0 0 0-7.428 7.428v25.996a7.428 7.428 0 0 0 7.428 7.427zm7.428-25.996h11.14v11.141h-11.14zm42.8 25.996h25.997a7.428 7.428 0 0 0 7.428-7.427v-25.996a7.428 7.428 0 0 0-7.428-7.428h-25.996a7.428 7.428 0 0 0-7.428 7.428v25.996a7.428 7.428 0 0 0 7.428 7.427zm7.428-25.996h11.141v11.141h-11.14zM93.938 331.75h25.997a7.428 7.428 0 0 0 7.427-7.428v-25.996a7.428 7.428 0 0 0-7.427-7.428H93.938a7.428 7.428 0 0 0-7.427 7.428v25.996a7.428 7.428 0 0 0 7.427 7.428zm7.428-25.996h11.141v11.14h-11.141ZM244.16 331.75h25.997a7.428 7.428 0 0 0 7.427-7.428v-25.996a7.428 7.428 0 0 0-7.427-7.428H244.16a7.428 7.428 0 0 0-7.427 7.428v25.996a7.428 7.428 0 0 0 7.427 7.428zm7.428-25.996h11.141v11.14h-11.141zm74.368 25.996h25.996a7.428 7.428 0 0 0 7.428-7.428v-25.996a7.428 7.428 0 0 0-7.428-7.428h-25.996a7.428 7.428 0 0 0-7.428 7.428v25.996a7.428 7.428 0 0 0 7.428 7.428zm7.428-25.996h11.14v11.14h-11.14zm42.8 25.996h25.997a7.428 7.428 0 0 0 7.428-7.428v-25.996a7.428 7.428 0 0 0-7.428-7.428h-25.996a7.428 7.428 0 0 0-7.428 7.428v25.996a7.428 7.428 0 0 0 7.428 7.428zm7.428-25.996h11.141v11.14h-11.14zM93.938 238.163h25.997a7.428 7.428 0 0 0 7.427-7.428V204.74a7.428 7.428 0 0 0-7.427-7.427H93.938a7.428 7.428 0 0 0-7.427 7.427v25.996a7.428 7.428 0 0 0 7.427 7.428zm7.428-25.996h11.141v11.14h-11.141Zm42.801 25.996h25.996a7.428 7.428 0 0 0 7.428-7.428V204.74a7.428 7.428 0 0 0-7.428-7.427h-25.996a7.428 7.428 0 0 0-7.427 7.427v25.996a7.428 7.428 0 0 0 7.427 7.428zm7.428-25.996h11.14v11.14h-11.14zm42.8 25.996h25.997a7.428 7.428 0 0 0 7.428-7.428V204.74a7.428 7.428 0 0 0-7.428-7.427h-25.996a7.428 7.428 0 0 0-7.428 7.427v25.996a7.428 7.428 0 0 0 7.428 7.428zm7.428-25.996h11.142v11.14h-11.142zm42.337 25.996h25.997a7.428 7.428 0 0 0 7.427-7.428V204.74a7.428 7.428 0 0 0-7.427-7.427H244.16a7.428 7.428 0 0 0-7.427 7.427v25.996a7.428 7.428 0 0 0 7.427 7.428zm7.428-25.996h11.141v11.14h-11.141zm74.368 25.996h25.996a7.428 7.428 0 0 0 7.428-7.428V204.74a7.428 7.428 0 0 0-7.428-7.427h-25.996a7.428 7.428 0 0 0-7.428 7.427v25.996a7.428 7.428 0 0 0 7.428 7.428zm7.428-25.996h11.14v11.14h-11.14zm42.8 25.996h25.997a7.428 7.428 0 0 0 7.428-7.428V204.74a7.428 7.428 0 0 0-7.428-7.427h-25.996a7.428 7.428 0 0 0-7.428 7.427v25.996a7.428 7.428 0 0 0 7.428 7.428zm7.428-25.996h11.141v11.14h-11.14ZM220.95 100.01a7.428 7.428 0 0 0 7.428-7.428v-9.655a7.428 7.428 0 0 0-14.855 0v9.655a7.428 7.428 0 0 0 7.427 7.428z"/>
    <path d="M427.435 175.029H277.398v-17.083c0-17.611-14.327-31.939-31.938-31.939-7.48 0-14.027-4.785-16.287-11.906a7.427 7.427 0 1 0-14.16 4.494c4.227 13.319 16.463 22.267 30.446 22.267 9.42 0 17.084 7.664 17.084 17.084v17.083H69.428A7.428 7.428 0 0 0 62 182.456v164.149a7.428 7.428 0 0 0 7.428 7.428h358.007a7.428 7.428 0 0 0 7.427-7.428V182.456a7.428 7.428 0 0 0-7.427-7.427zm-7.428 164.148H76.855V189.884h343.152z"/>
    <circle style="fill:none;stroke:currentColor;stroke-width:21.2162;stroke-miterlimit:4;stroke-dasharray:none;stroke-opacity:1"
            cx="245" cy="245" r="234.392"/>
</svg>
