<svg viewBox="0 0 367.5 367.5" xmlns="http://www.w3.org/2000/svg">
    <path d="M234.973 273.23H83.095c-14.72 0-26.697-11.976-26.697-26.697 0-14.718 11.976-26.695 26.697-26.695h151.878a4.374 4.374 0 0 1 0 8.749H83.095c-9.896 0-17.948 8.052-17.948 17.946 0 9.896 8.052 17.945 17.948 17.945h150.56l66.15-43.827a4.373 4.373 0 0 1 6.064 1.23 4.373 4.373 0 0 1-1.23 6.061l-67.25 44.56a4.377 4.377 0 0 1-2.417.727z"/>
    <path d="M226.014 272.433a4.374 4.374 0 0 1-4.373-4.375v-30.33a4.374 4.374 0 1 1 8.749 0v30.33a4.375 4.375 0 0 1-4.376 4.375zM210.847 183.192a4.374 4.374 0 0 1-4.373-4.376v-30.329a4.374 4.374 0 1 1 8.748 0v30.329a4.375 4.375 0 0 1-4.375 4.376z"/>
    <path d="M567.45 299.456c-3.574 0-6.473-2.285-6.473-5.105v-35.385c0-2.82 2.899-5.106 6.473-5.106 3.578 0 6.476 2.285 6.476 5.106v35.385c0 2.82-2.898 5.105-6.476 5.105zM580.94 386.13c-3.574 0-6.472-2.286-6.472-5.106v-35.385c0-2.82 2.898-5.105 6.473-5.105 3.578 0 6.476 2.284 6.476 5.105v35.385c0 2.82-2.898 5.105-6.476 5.105z"
          style="stroke-width:.887831" transform="translate(-70.282 -72.487) scale(.67561)"/>
    <path d="M551.306 443.817c-3.574 0-6.472-1.453-6.472-3.247v-22.506c0-1.794 2.898-3.247 6.472-3.247 3.578 0 6.477 1.453 6.477 3.247v22.506c0 1.794-2.899 3.247-6.477 3.247z"
          style="stroke-width:.70806" transform="translate(-70.282 -72.487) scale(.67561)"/>
    <path d="M220.4 183.307a4.375 4.375 0 0 1-2.146-8.19l92.303-51.797a4.376 4.376 0 0 1 4.283 7.632l-92.302 51.795c-.676.38-1.412.56-2.135.56zM68.266 184.11c-14.742 0-26.719-11.973-26.719-26.694 0-12.27 8.321-22.633 19.62-25.742l101.01-39.355a48.7 48.7 0 0 1 17.125-3.114l130.454-.095h.003a4.374 4.374 0 0 1 4.27 3.428 4.379 4.379 0 0 1-2.423 4.914l-89.363 41.608c-.58.27-1.209.41-1.847.41H68.248c-1.507 0-2.972.187-4.373.538l-1.507.588a4.44 4.44 0 0 1-1.053.267c-6.463 2.716-11.013 9.113-11.013 16.552 0 9.895 8.049 17.946 17.945 17.946l4.21-.021h.024a4.375 4.375 0 0 1 .023 8.749zm19.444-53.388h131.718l70.54-32.847-110.658.08c-4.79.005-9.496.855-13.987 2.528z"/>
    <path d="M259.923 184.03H119.511a4.374 4.374 0 0 1 0-8.75h139.237l46.535-26.931h-21.26a4.374 4.374 0 0 1 0-8.749h37.554a4.375 4.375 0 0 1 2.19 8.16l-61.655 35.68a4.375 4.375 0 0 1-2.19.59zM259.923 228.667H106.857c-11.087 0-21.142-6.978-25.016-17.362a4.372 4.372 0 0 1 2.568-5.63 4.377 4.377 0 0 1 5.629 2.57c2.605 6.981 9.363 11.673 16.82 11.673H258.66l60.587-38.148a4.375 4.375 0 1 1 4.66 7.405l-61.655 38.819a4.354 4.354 0 0 1-2.327.673z"/>
    <path d="M249.343 228.106a4.374 4.374 0 0 1-4.375-4.373v-30.331a4.375 4.375 0 1 1 8.748 0v30.331a4.373 4.373 0 0 1-4.373 4.373zM116.065 161.903H65.904a4.374 4.374 0 0 1 0-8.749h50.161a4.374 4.374 0 1 1 0 8.75z"/>
    <path d="M102.945 205.94a4.376 4.376 0 0 1-3.405-1.626l-10.886-13.47-10.889 13.47a4.383 4.383 0 0 1-4.86 1.375 4.38 4.38 0 0 1-2.917-4.125v-41.996a4.375 4.375 0 1 1 8.749 0v29.624l6.513-8.057a4.383 4.383 0 0 1 3.404-1.626c1.32 0 2.57.6 3.402 1.626l6.513 8.057v-29.624a4.374 4.374 0 1 1 8.75 0v41.996a4.377 4.377 0 0 1-4.374 4.376z"/>
    <circle style="fill:none;stroke:#000;stroke-width:15.9121;stroke-miterlimit:4;stroke-dasharray:none;stroke-opacity:1"
            cx="183.75" cy="183.75" r="175.794"/>
</svg>
