<svg xmlns="http://www.w3.org/2000/svg" viewBox="0 0 490 490">
    <path d="M445.487 215.223h-28.942V184.76c0-9.204-7.488-16.692-16.693-16.692h-19.618c-1.553 0-3.051.23-4.478.628v-6.145c0-9.204-7.488-16.692-16.692-16.692h-32.408c-9.204 0-16.692 7.488-16.692 16.692v52.672h-129.93V162.55c0-9.204-7.487-16.692-16.692-16.692h-32.408c-9.204 0-16.692 7.488-16.692 16.692v6.145a16.611 16.611 0 0 0-4.478-.628H90.147c-9.204 0-16.692 7.488-16.692 16.692v30.463H44.51a6.107 6.107 0 0 0-6.106 6.106v47.342a6.107 6.107 0 0 0 6.106 6.106h28.944v30.463c0 9.204 7.487 16.692 16.692 16.692h19.617c1.553 0 3.052-.23 4.479-.628v6.145c0 9.204 7.487 16.692 16.692 16.692h32.408c9.204 0 16.692-7.488 16.692-16.692v-52.672h129.93v52.672c0 9.204 7.488 16.692 16.692 16.692h32.408c9.204 0 16.692-7.488 16.692-16.692v-6.145c1.428.399 2.926.628 4.479.628h19.618c9.204 0 16.692-7.488 16.692-16.692v-30.463h28.943a6.107 6.107 0 0 0 6.106-6.106v-47.342a6.11 6.11 0 0 0-6.108-6.106zM73.455 262.564H50.619v-35.128h22.836zm40.788 42.677a4.484 4.484 0 0 1-4.479 4.478H90.147a4.484 4.484 0 0 1-4.478-4.478V184.76c0-2.47 2.01-4.479 4.478-4.479h19.617a4.483 4.483 0 0 1 4.479 4.479zm53.577-83.911v106.119c0 2.47-2.01 4.478-4.478 4.478h-32.408a4.484 4.484 0 0 1-4.478-4.478V162.55c0-2.469 2.01-4.478 4.478-4.478h32.408a4.484 4.484 0 0 1 4.478 4.478zm142.144 41.234h-129.93v-35.128h129.93zm53.579-77.805v142.69c0 2.47-2.01 4.479-4.479 4.479h-32.407a4.484 4.484 0 0 1-4.479-4.479V162.552c0-2.47 2.01-4.478 4.479-4.478h32.407a4.484 4.484 0 0 1 4.479 4.478zm40.788 36.57v83.912c0 2.469-2.01 4.478-4.478 4.478h-19.618a4.484 4.484 0 0 1-4.478-4.478V184.76c0-2.47 2.01-4.479 4.478-4.479h19.618a4.484 4.484 0 0 1 4.478 4.479zm35.049 41.235h-22.835v-35.128h22.835z"/>
    <circle style="fill:none;stroke:#000;stroke-width:21.2162;stroke-miterlimit:4;stroke-dasharray:none;stroke-opacity:1"
            cx="245" cy="245" r="234.392"/>
</svg>
