<svg xmlns="http://www.w3.org/2000/svg" viewBox="0 0 490 490">
    <path d="M380 255.799v-21.557c0-74.44-60.561-135-135-135s-135 60.56-135 135v21.557c-18.204 13.697-30 35.475-30 59.959 0 41.355 33.645 75 75 75 8.284 0 15-6.716 15-15v-120c0-8.284-6.716-15-15-15-5.136 0-10.152.521-15 1.509v-8.025c0-57.897 47.103-105 105-105s105 47.103 105 105v8.025a75.054 75.054 0 0 0-15-1.509c-8.284 0-15 6.716-15 15v120c0 8.284 6.716 15 15 15 41.355 0 75-33.645 75-75 0-24.484-11.796-46.262-30-59.959zM140 358.188c-17.461-6.191-30-22.874-30-42.43s12.539-36.239 30-42.43zm210 0v-84.859c17.461 6.191 30 22.874 30 42.43 0 19.555-12.539 36.238-30 42.429z"/>
    <circle style="fill:none;stroke:#000;stroke-width:21.2162;stroke-miterlimit:4;stroke-dasharray:none;stroke-opacity:1"
            cx="245" cy="245" r="234.392"/>
</svg>
