<svg xmlns="http://www.w3.org/2000/svg" viewBox="0 0 502 502">
    <path d="M43 345.5h35c5.522 0 10-4.477 10-10v-35c0-5.523-4.478-10-10-10H43c-5.522 0-10 4.477-10 10v35c0 5.523 4.478 10 10 10zm10-35h15v15H53v-15zM110.625 345.5h35c5.522 0 10-4.477 10-10v-35c0-5.523-4.478-10-10-10h-35c-5.522 0-10 4.477-10 10v35c0 5.523 4.478 10 10 10zm10-35h15v15h-15v-15zM178.25 345.5h35c5.522 0 10-4.477 10-10v-35c0-5.523-4.478-10-10-10h-35c-5.522 0-10 4.477-10 10v35c0 5.523 4.478 10 10 10zm10-35h15v15h-15v-15zM110.625 408.5H213.25c5.522 0 10-4.477 10-10v-35c0-5.523-4.478-10-10-10H110.625c-5.522 0-10 4.477-10 10v35c0 5.523 4.478 10 10 10zm10-35h82.625v15h-82.625v-15zM245.25 345.5h35c5.522 0 10-4.477 10-10v-35c0-5.523-4.478-10-10-10h-35c-5.522 0-10 4.477-10 10v35c0 5.523 4.478 10 10 10zm10-35h15v15h-15v-15zM355.375 345.5h35c5.522 0 10-4.477 10-10v-35c0-5.523-4.478-10-10-10h-35c-5.522 0-10 4.477-10 10v35c0 5.523 4.478 10 10 10zm10-35h15v15h-15v-15zM423 345.5h35c5.522 0 10-4.477 10-10v-35c0-5.523-4.478-10-10-10h-35c-5.522 0-10 4.477-10 10v35c0 5.523 4.478 10 10 10zm10-35h15v15h-15v-15zM43 408.5h35c5.522 0 10-4.477 10-10v-35c0-5.523-4.478-10-10-10H43c-5.522 0-10 4.477-10 10v35c0 5.523 4.478 10 10 10zm10-35h15v15H53v-15zM245.25 408.5h35c5.522 0 10-4.477 10-10v-35c0-5.523-4.478-10-10-10h-35c-5.522 0-10 4.477-10 10v35c0 5.523 4.478 10 10 10zm10-35h15v15h-15v-15zM355.375 408.5h35c5.522 0 10-4.477 10-10v-35c0-5.523-4.478-10-10-10h-35c-5.522 0-10 4.477-10 10v35c0 5.523 4.478 10 10 10zm10-35h15v15h-15v-15zM423 408.5h35c5.522 0 10-4.477 10-10v-35c0-5.523-4.478-10-10-10h-35c-5.522 0-10 4.477-10 10v35c0 5.523 4.478 10 10 10zm10-35h15v15h-15v-15zM43 282.5h35c5.522 0 10-4.477 10-10v-35c0-5.523-4.478-10-10-10H43c-5.522 0-10 4.477-10 10v35c0 5.523 4.478 10 10 10zm10-35h15v15H53v-15zM110.625 282.5h35c5.522 0 10-4.477 10-10v-35c0-5.523-4.478-10-10-10h-35c-5.522 0-10 4.477-10 10v35c0 5.523 4.478 10 10 10zm10-35h15v15h-15v-15zM178.25 282.5h35c5.522 0 10-4.477 10-10v-35c0-5.523-4.478-10-10-10h-35c-5.522 0-10 4.477-10 10v35c0 5.523 4.478 10 10 10zm10-35h15v15h-15v-15zM245.25 282.5h35c5.522 0 10-4.477 10-10v-35c0-5.523-4.478-10-10-10h-35c-5.522 0-10 4.477-10 10v35c0 5.523 4.478 10 10 10zm10-35h15v15h-15v-15zM355.375 282.5h35c5.522 0 10-4.477 10-10v-35c0-5.523-4.478-10-10-10h-35c-5.522 0-10 4.477-10 10v35c0 5.523 4.478 10 10 10zm10-35h15v15h-15v-15zM423 282.5h35c5.522 0 10-4.477 10-10v-35c0-5.523-4.478-10-10-10h-35c-5.522 0-10 4.477-10 10v35c0 5.523 4.478 10 10 10zm10-35h15v15h-15v-15zM214 96.5c5.522 0 10-4.477 10-10v-13c0-5.523-4.478-10-10-10s-10 4.477-10 10v13c0 5.523 4.478 10 10 10z"/>
    <path d="M492 197.5H290v-23c0-23.71-19.29-43-43-43-10.072 0-18.885-6.442-21.928-16.03-1.671-5.264-7.289-8.177-12.557-6.507-5.264 1.671-8.177 7.292-6.506 12.557 5.69 17.932 22.163 29.98 40.99 29.98 12.683 0 23 10.318 23 23v23H10c-5.522 0-10 4.477-10 10v221c0 5.523 4.478 10 10 10h482c5.522 0 10-4.477 10-10v-221c0-5.523-4.478-10-10-10zm-10 221H20v-201h462v201z"/>
</svg>
