<svg xmlns="http://www.w3.org/2000/svg" viewBox="0 0 488 488">
    <path d="M416.4 71.6C370.2 25.4 309 0 244 0S117.8 25.4 71.6 71.6C25.4 117.8 0 179 0 244s25.4 126.2 71.6 172.4C117.8 462.6 179 488 244 488s126.2-25.4 172.4-71.6C462.6 370.2 488 309 488 244s-25.4-126.2-71.6-172.4zM244 20c110.9 0 203.2 81 220.9 186.9l-71.3-71.3c-2-2-4.7-3-7.5-2.9s-5.4 1.4-7.2 3.6L317.1 210l-65.6-74c-1.9-2.1-4.6-3.4-7.5-3.4-2.9 0-5.6 1.2-7.5 3.4L169 212.1l-70.1-76.2c-1.9-2.1-4.6-3.3-7.4-3.2-2.8 0-5.5 1.2-7.4 3.4l-60.5 68.2C42.4 99.6 134.1 20 244 20zm153.5 147.8-11.1 11.1-9.5-9.2 10.3-12.3 10.3 10.4zm-93.4 57.6-20.3 24.3-32.7-33.3c-1.9-1.9-4.5-3-7.1-3-2.6 0-5.3 1.1-7.1 3l-33 33.6-21.3-23.1 61.4-69.2 60.1 67.7zm-202-56.5-10.6 10.2-10.2-9.8 10.4-11.7 10.4 11.3zM19.8 244c.2-2 .2-3.9.3-5.9.2-.2.3-.3.4-.5L68 184.1l16.6 16c1.9 1.9 4.4 2.8 6.9 2.8s5-.9 6.9-2.8l17.1-16.5 40 43.5-109 122.8c-17-31.6-26.7-67.6-26.7-105.9zM244 468c-77.7 0-146.3-39.8-186.5-100.1L169.3 242l27 29.4c1.9 2 4.5 3.2 7.2 3.2s5.4-1 7.3-3l33.3-33.9 33.3 33.9c1.9 1.9 4.5 3 7.1 3h.4c2.8-.1 5.5-1.4 7.3-3.6l25.5-30.4 113 127.3C390.3 428.2 321.7 468 244 468zm197.3-118.1L330.5 225l33.5-40 15.6 15c1.9 1.9 4.4 2.8 6.9 2.8 2.6 0 5.1-1 7.1-2.9l18.1-18.1 56.2 56.2c.1 1.9.1 3.9.1 5.8 0 38.5-9.7 74.6-26.7 106.1z"/>
</svg>
